<svg width="113" height="38" viewBox="0 0 113 38" fill="none" xmlns="http://www.w3.org/2000/svg">
<path d="M5.966 1.548V1.928C5.53533 1.94067 5.206 1.99133 4.978 2.08C4.76267 2.156 4.617 2.308 4.541 2.536C4.465 2.75133 4.427 3.09333 4.427 3.562V13.062C4.427 13.4927 4.45867 13.8157 4.522 14.031C4.598 14.2463 4.73733 14.392 4.94 14.468C5.15533 14.5313 5.45933 14.563 5.852 14.563H7.087C7.63167 14.563 8.08767 14.487 8.455 14.335C8.835 14.183 9.15167 13.955 9.405 13.651C9.65833 13.347 9.85467 12.9543 9.994 12.473C10.1333 11.9917 10.241 11.428 10.317 10.782H10.754C10.716 11.1873 10.697 11.7193 10.697 12.378C10.697 12.6313 10.7033 13.005 10.716 13.499C10.7413 13.9803 10.7793 14.4807 10.83 15C10.184 14.9747 9.45567 14.962 8.645 14.962C7.83433 14.9493 7.11233 14.943 6.479 14.943C6.18767 14.943 5.814 14.943 5.358 14.943C4.902 14.943 4.408 14.9493 3.876 14.962C3.35667 14.962 2.82467 14.9683 2.28 14.981C1.748 14.981 1.235 14.9873 0.741 15V14.62C1.17167 14.5947 1.49467 14.544 1.71 14.468C1.92533 14.392 2.06467 14.24 2.128 14.012C2.204 13.784 2.242 13.442 2.242 12.986V3.562C2.242 3.09333 2.204 2.75133 2.128 2.536C2.06467 2.308 1.919 2.156 1.691 2.08C1.47567 1.99133 1.159 1.94067 0.741 1.928V1.548C1.03233 1.56067 1.406 1.57333 1.862 1.586C2.33067 1.59867 2.831 1.605 3.363 1.605C3.84433 1.605 4.31933 1.59867 4.788 1.586C5.26933 1.57333 5.662 1.56067 5.966 1.548ZM15.0104 15.133C14.4784 15.133 14.0224 15.0317 13.6424 14.829C13.2624 14.6263 12.9774 14.3477 12.7874 13.993C12.5974 13.6383 12.5024 13.233 12.5024 12.777C12.5024 12.2197 12.629 11.77 12.8824 11.428C13.1357 11.0733 13.4587 10.7883 13.8514 10.573C14.2567 10.3577 14.681 10.1803 15.1244 10.041C15.5804 9.889 16.0047 9.74967 16.3974 9.623C16.8027 9.48367 17.132 9.32533 17.3854 9.148C17.6514 8.97067 17.7844 8.73633 17.7844 8.445V7.153C17.7844 6.697 17.7084 6.336 17.5564 6.07C17.417 5.79133 17.2207 5.595 16.9674 5.481C16.7267 5.367 16.4354 5.31 16.0934 5.31C15.802 5.31 15.4917 5.35433 15.1624 5.443C14.833 5.519 14.5734 5.67733 14.3834 5.918C14.662 5.994 14.89 6.146 15.0674 6.374C15.2574 6.58933 15.3524 6.86167 15.3524 7.191C15.3524 7.54567 15.232 7.82433 14.9914 8.027C14.7634 8.22967 14.472 8.331 14.1174 8.331C13.7247 8.331 13.4334 8.21067 13.2434 7.97C13.0534 7.71667 12.9584 7.42533 12.9584 7.096C12.9584 6.754 13.0407 6.47533 13.2054 6.26C13.3827 6.04467 13.6107 5.842 13.8894 5.652C14.1934 5.44933 14.5797 5.27833 15.0484 5.139C15.5297 4.99967 16.0617 4.93 16.6444 4.93C17.189 4.93 17.6577 4.99333 18.0504 5.12C18.4557 5.234 18.7914 5.424 19.0574 5.69C19.374 5.98133 19.583 6.34867 19.6844 6.792C19.7857 7.22267 19.8364 7.74833 19.8364 8.369V13.613C19.8364 13.9297 19.8744 14.1577 19.9504 14.297C20.039 14.4237 20.1784 14.487 20.3684 14.487C20.495 14.487 20.6154 14.4553 20.7294 14.392C20.856 14.3287 21.0017 14.2337 21.1664 14.107L21.3564 14.43C21.0904 14.6453 20.818 14.8163 20.5394 14.943C20.2734 15.0697 19.9314 15.133 19.5134 15.133C19.108 15.133 18.7787 15.0697 18.5254 14.943C18.272 14.8163 18.082 14.6327 17.9554 14.392C17.8414 14.1513 17.7844 13.8537 17.7844 13.499C17.455 14.031 17.0624 14.4363 16.6064 14.715C16.1504 14.9937 15.6184 15.133 15.0104 15.133ZM15.9224 14.221C16.277 14.221 16.6064 14.1197 16.9104 13.917C17.227 13.7143 17.5184 13.4103 17.7844 13.005V9.224C17.645 9.42667 17.4424 9.604 17.1764 9.756C16.9104 9.89533 16.6254 10.041 16.3214 10.193C16.0174 10.345 15.726 10.5223 15.4474 10.725C15.1814 10.915 14.9597 11.162 14.7824 11.466C14.605 11.77 14.5164 12.1563 14.5164 12.625C14.5164 13.119 14.643 13.5117 14.8964 13.803C15.1497 14.0817 15.4917 14.221 15.9224 14.221ZM31.3161 0.103999V12.929C31.3161 13.499 31.4111 13.9233 31.6011 14.202C31.8038 14.468 32.1648 14.601 32.6841 14.601V15C32.2915 14.962 31.8988 14.943 31.5061 14.943C31.0755 14.943 30.6701 14.962 30.2901 15C29.9228 15.038 29.5808 15.1077 29.2641 15.209V2.384C29.2641 1.814 29.1628 1.396 28.9601 1.13C28.7701 0.851333 28.4155 0.711999 27.8961 0.711999V0.312999C28.3015 0.350999 28.6941 0.369999 29.0741 0.369999C29.4921 0.369999 29.8911 0.350999 30.2711 0.312999C30.6511 0.262333 30.9995 0.192666 31.3161 0.103999ZM27.0411 4.93C27.5985 4.93 28.1051 5.05033 28.5611 5.291C29.0298 5.53167 29.3591 5.937 29.5491 6.507L29.3211 6.716C29.1438 6.26 28.8841 5.93067 28.5421 5.728C28.2001 5.51267 27.8138 5.405 27.3831 5.405C26.6611 5.405 26.0721 5.79133 25.6161 6.564C25.1601 7.324 24.9385 8.502 24.9511 10.098C24.9511 11.1493 25.0398 12.0107 25.2171 12.682C25.3945 13.3407 25.6541 13.8283 25.9961 14.145C26.3508 14.4617 26.7751 14.62 27.2691 14.62C27.7631 14.62 28.2065 14.411 28.5991 13.993C29.0045 13.575 29.2451 12.9733 29.3211 12.188L29.4921 12.587C29.3655 13.4483 29.0615 14.1133 28.5801 14.582C28.0988 15.038 27.4528 15.266 26.6421 15.266C25.8695 15.266 25.1855 15.0823 24.5901 14.715C24.0075 14.335 23.5578 13.765 23.2411 13.005C22.9245 12.2323 22.7661 11.2633 22.7661 10.098C22.7661 8.94533 22.9561 7.989 23.3361 7.229C23.7288 6.45633 24.2481 5.88 24.8941 5.5C25.5401 5.12 26.2558 4.93 27.0411 4.93ZM43.0625 5.196V5.576C42.8218 5.614 42.6002 5.74067 42.3975 5.956C42.1948 6.15867 41.9985 6.51333 41.8085 7.02L38.8445 14.962L38.3885 15.418L34.6835 6.659C34.4428 6.165 34.2085 5.86733 33.9805 5.766C33.7652 5.652 33.5815 5.595 33.4295 5.595V5.196C33.7462 5.234 34.0818 5.26567 34.4365 5.291C34.7912 5.30367 35.1585 5.31 35.5385 5.31C35.9692 5.31 36.3998 5.29733 36.8305 5.272C37.2738 5.24667 37.6855 5.22133 38.0655 5.196V5.595C37.7615 5.595 37.4892 5.62033 37.2485 5.671C37.0205 5.709 36.8685 5.82933 36.7925 6.032C36.7292 6.222 36.7925 6.55133 36.9825 7.02L39.3385 12.815L39.2055 12.872L41.1245 7.78C41.3145 7.27333 41.3905 6.868 41.3525 6.564C41.3145 6.24733 41.1815 6.013 40.9535 5.861C40.7255 5.69633 40.3898 5.60133 39.9465 5.576V5.196C40.1618 5.20867 40.3582 5.22133 40.5355 5.234C40.7255 5.234 40.9092 5.24033 41.0865 5.253C41.2638 5.253 41.4412 5.253 41.6185 5.253C41.8972 5.253 42.1568 5.24667 42.3975 5.234C42.6508 5.22133 42.8725 5.20867 43.0625 5.196ZM38.8445 14.962L38.1605 16.748C38.0338 17.0647 37.9008 17.3307 37.7615 17.546C37.6348 17.7613 37.4955 17.9387 37.3435 18.078C37.1535 18.2553 36.9192 18.382 36.6405 18.458C36.3618 18.534 36.0832 18.572 35.8045 18.572C35.5385 18.572 35.2852 18.5213 35.0445 18.42C34.8165 18.3313 34.6265 18.192 34.4745 18.002C34.3225 17.812 34.2465 17.5777 34.2465 17.299C34.2465 16.9697 34.3542 16.7037 34.5695 16.501C34.7848 16.2983 35.0698 16.197 35.4245 16.197C35.7412 16.197 36.0072 16.2793 36.2225 16.444C36.4378 16.6213 36.5455 16.8747 36.5455 17.204C36.5455 17.432 36.4822 17.6283 36.3555 17.793C36.2415 17.9577 36.0895 18.0843 35.8995 18.173C35.9375 18.1857 35.9755 18.192 36.0135 18.192C36.0515 18.192 36.0832 18.192 36.1085 18.192C36.4632 18.192 36.7798 18.0717 37.0585 17.831C37.3372 17.603 37.5715 17.2293 37.7615 16.71L38.4455 14.886L38.8445 14.962ZM61.2306 1.548V1.928C60.8 1.95333 60.477 2.02933 60.2616 2.156C60.0463 2.28267 59.9006 2.49167 59.8246 2.783C59.7613 3.06167 59.7296 3.46067 59.7296 3.98V15.076C59.6283 15.076 59.527 15.076 59.4256 15.076C59.3243 15.076 59.2166 15.076 59.1026 15.076L51.0466 3.372V12.492C51.0466 13.024 51.0846 13.442 51.1606 13.746C51.2366 14.0373 51.4013 14.2463 51.6546 14.373C51.908 14.4997 52.2943 14.582 52.8136 14.62V15C52.573 14.9747 52.2626 14.962 51.8826 14.962C51.5153 14.9493 51.167 14.943 50.8376 14.943C50.521 14.943 50.2043 14.9493 49.8876 14.962C49.571 14.962 49.3113 14.9747 49.1086 15V14.62C49.5266 14.582 49.8433 14.506 50.0586 14.392C50.274 14.2653 50.4196 14.0563 50.4956 13.765C50.5716 13.4737 50.6096 13.0747 50.6096 12.568V3.562C50.6096 3.09333 50.5716 2.75133 50.4956 2.536C50.4196 2.308 50.274 2.156 50.0586 2.08C49.8433 1.99133 49.5266 1.94067 49.1086 1.928V1.548C49.3113 1.56067 49.571 1.57333 49.8876 1.586C50.2043 1.59867 50.521 1.605 50.8376 1.605C51.1163 1.605 51.3886 1.59867 51.6546 1.586C51.9206 1.57333 52.155 1.56067 52.3576 1.548L59.2926 11.466V4.056C59.2926 3.51133 59.2483 3.09333 59.1596 2.802C59.0836 2.51067 58.919 2.30167 58.6656 2.175C58.4123 2.03567 58.0323 1.95333 57.5256 1.928V1.548C57.7536 1.56067 58.0576 1.57333 58.4376 1.586C58.8176 1.59867 59.1723 1.605 59.5016 1.605C59.8183 1.605 60.135 1.59867 60.4516 1.586C60.7683 1.57333 61.028 1.56067 61.2306 1.548ZM71.5021 4.987V12.948C71.5021 13.518 71.5971 13.9423 71.7871 14.221C71.9898 14.487 72.3508 14.62 72.8701 14.62V15.019C72.4775 14.981 72.0848 14.962 71.6921 14.962C71.2741 14.962 70.8751 14.981 70.4951 15.019C70.1151 15.057 69.7668 15.1267 69.4501 15.228V13.157C69.1335 13.917 68.6901 14.4617 68.1201 14.791C67.5628 15.1077 66.9738 15.266 66.3531 15.266C65.8845 15.266 65.4855 15.1963 65.1561 15.057C64.8268 14.9303 64.5545 14.7593 64.3391 14.544C64.1111 14.2907 63.9528 13.9677 63.8641 13.575C63.7755 13.1697 63.7311 12.663 63.7311 12.055V7.267C63.7311 6.697 63.6361 6.279 63.4461 6.013C63.2561 5.73433 62.8951 5.595 62.3631 5.595V5.196C62.7685 5.234 63.1611 5.253 63.5411 5.253C63.9591 5.253 64.3581 5.234 64.7381 5.196C65.1181 5.14533 65.4665 5.07567 65.7831 4.987V12.587C65.7831 12.9543 65.8085 13.29 65.8591 13.594C65.9098 13.898 66.0301 14.1387 66.2201 14.316C66.4101 14.4933 66.7141 14.582 67.1321 14.582C67.5755 14.582 67.9681 14.449 68.3101 14.183C68.6648 13.917 68.9435 13.556 69.1461 13.1C69.3488 12.644 69.4501 12.131 69.4501 11.561V7.267C69.4501 6.697 69.3551 6.279 69.1651 6.013C68.9751 5.73433 68.6141 5.595 68.0821 5.595V5.196C68.4875 5.234 68.8801 5.253 69.2601 5.253C69.6781 5.253 70.0771 5.234 70.4571 5.196C70.8371 5.14533 71.1855 5.07567 71.5021 4.987ZM80.7586 4.93C81.2399 4.93 81.6453 4.99967 81.9746 5.139C82.3039 5.26567 82.5699 5.443 82.7726 5.671C83.0006 5.91167 83.1589 6.23467 83.2476 6.64C83.3363 7.03267 83.3806 7.533 83.3806 8.141V13.233C83.3806 13.765 83.4819 14.126 83.6846 14.316C83.8873 14.506 84.2293 14.601 84.7106 14.601V15C84.4953 14.9873 84.1596 14.9747 83.7036 14.962C83.2603 14.9367 82.8233 14.924 82.3926 14.924C81.9619 14.924 81.5376 14.9367 81.1196 14.962C80.7143 14.9747 80.4039 14.9873 80.1886 15V14.601C80.6066 14.601 80.8979 14.506 81.0626 14.316C81.2399 14.126 81.3286 13.765 81.3286 13.233V7.609C81.3286 7.24167 81.3033 6.91233 81.2526 6.621C81.2019 6.317 81.0816 6.07633 80.8916 5.899C80.7143 5.709 80.4293 5.614 80.0366 5.614C79.5933 5.614 79.1943 5.747 78.8396 6.013C78.4976 6.279 78.2189 6.64633 78.0036 7.115C77.8009 7.571 77.6996 8.084 77.6996 8.654V13.233C77.6996 13.765 77.7883 14.126 77.9656 14.316C78.1429 14.506 78.4343 14.601 78.8396 14.601V15C78.6369 14.9873 78.3329 14.9747 77.9276 14.962C77.5223 14.9367 77.1043 14.924 76.6736 14.924C76.2429 14.924 75.7933 14.9367 75.3246 14.962C74.8559 14.9747 74.5076 14.9873 74.2796 15V14.601C74.7736 14.601 75.1219 14.506 75.3246 14.316C75.5399 14.126 75.6476 13.765 75.6476 13.233V7.267C75.6476 6.697 75.5526 6.279 75.3626 6.013C75.1726 5.73433 74.8116 5.595 74.2796 5.595V5.196C74.6849 5.234 75.0776 5.253 75.4576 5.253C75.8883 5.253 76.2873 5.234 76.6546 5.196C77.0346 5.14533 77.3829 5.07567 77.6996 4.987V7.058C78.0289 6.298 78.4659 5.75333 79.0106 5.424C79.5679 5.09467 80.1506 4.93 80.7586 4.93ZM86.4776 4.93C86.9589 4.93 87.3643 4.99967 87.6936 5.139C88.0229 5.26567 88.2889 5.443 88.4916 5.671C88.7196 5.91167 88.8779 6.23467 88.9666 6.64C89.0553 7.03267 89.0996 7.533 89.0996 8.141V13.233C89.0996 13.765 89.2009 14.126 89.4036 14.316C89.6189 14.506 89.9736 14.601 90.4676 14.601V15C90.2523 14.9873 89.9166 14.9747 89.4606 14.962C89.0046 14.9367 88.5549 14.924 88.1116 14.924C87.6809 14.924 87.2566 14.9367 86.8386 14.962C86.4333 14.9747 86.1229 14.9873 85.9076 15V14.601C86.3256 14.601 86.6169 14.506 86.7816 14.316C86.9589 14.126 87.0476 13.765 87.0476 13.233V7.609C87.0476 7.24167 87.0223 6.91233 86.9716 6.621C86.9209 6.317 86.8006 6.07633 86.6106 5.899C86.4206 5.709 86.1229 5.614 85.7176 5.614C85.2743 5.614 84.8753 5.75333 84.5206 6.032C84.1786 6.298 83.8999 6.66533 83.6846 7.134C83.4819 7.59 83.3806 8.103 83.3806 8.673L83.3046 7.096C83.6466 6.26 84.1026 5.69 84.6726 5.386C85.2553 5.082 85.8569 4.93 86.4776 4.93ZM96.4691 4.93C97.5838 4.93 98.4578 5.26567 99.0911 5.937C99.7245 6.60833 100.041 7.67233 100.041 9.129H93.4861L93.4481 8.768H98.0271C98.0398 8.14733 97.9891 7.57733 97.8751 7.058C97.7611 6.526 97.5838 6.10167 97.3431 5.785C97.1025 5.46833 96.7858 5.31 96.3931 5.31C95.8485 5.31 95.3735 5.60133 94.9681 6.184C94.5755 6.754 94.3348 7.67233 94.2461 8.939L94.3031 9.034C94.2905 9.21133 94.2778 9.40767 94.2651 9.623C94.2525 9.82567 94.2461 10.0283 94.2461 10.231C94.2461 11.105 94.3791 11.8397 94.6451 12.435C94.9111 13.0303 95.2595 13.48 95.6901 13.784C96.1208 14.0753 96.5578 14.221 97.0011 14.221C97.3431 14.221 97.6725 14.1703 97.9891 14.069C98.3185 13.955 98.6288 13.7713 98.9201 13.518C99.2115 13.252 99.4711 12.891 99.6991 12.435L100.079 12.587C99.9271 13.0177 99.6928 13.442 99.3761 13.86C99.0595 14.278 98.6541 14.62 98.1601 14.886C97.6661 15.1393 97.0898 15.266 96.4311 15.266C95.5445 15.266 94.7718 15.0697 94.1131 14.677C93.4545 14.2717 92.9478 13.6953 92.5931 12.948C92.2385 12.2007 92.0611 11.314 92.0611 10.288C92.0611 9.16067 92.2448 8.198 92.6121 7.4C92.9795 6.602 93.4925 5.994 94.1511 5.576C94.8225 5.14533 95.5951 4.93 96.4691 4.93ZM108.425 4.93C108.931 4.93 109.343 4.99967 109.66 5.139C109.989 5.26567 110.261 5.443 110.477 5.671C110.705 5.91167 110.863 6.222 110.952 6.602C111.053 6.982 111.104 7.495 111.104 8.141V13.233C111.104 13.765 111.205 14.126 111.408 14.316C111.623 14.506 111.978 14.601 112.472 14.601V15C112.256 14.9873 111.921 14.9747 111.465 14.962C111.009 14.9367 110.559 14.924 110.116 14.924C109.685 14.924 109.254 14.9367 108.824 14.962C108.406 14.9747 108.089 14.9873 107.874 15V14.601C108.304 14.601 108.608 14.506 108.786 14.316C108.963 14.126 109.052 13.765 109.052 13.233V7.609C109.052 7.24167 109.02 6.91233 108.957 6.621C108.893 6.317 108.76 6.07633 108.558 5.899C108.355 5.709 108.051 5.614 107.646 5.614C107.177 5.614 106.759 5.747 106.392 6.013C106.037 6.279 105.752 6.64633 105.537 7.115C105.334 7.571 105.233 8.084 105.233 8.654V13.233C105.233 13.765 105.321 14.126 105.499 14.316C105.689 14.506 105.993 14.601 106.411 14.601V15C106.208 14.9873 105.898 14.9747 105.48 14.962C105.074 14.9367 104.65 14.924 104.207 14.924C103.776 14.924 103.326 14.9367 102.858 14.962C102.389 14.9747 102.041 14.9873 101.813 15V14.601C102.307 14.601 102.655 14.506 102.858 14.316C103.073 14.126 103.181 13.765 103.181 13.233V7.267C103.181 6.697 103.086 6.279 102.896 6.013C102.706 5.73433 102.345 5.595 101.813 5.595V5.196C102.218 5.234 102.611 5.253 102.991 5.253C103.421 5.253 103.82 5.234 104.188 5.196C104.568 5.14533 104.916 5.07567 105.233 4.987V7.058C105.562 6.27267 106.012 5.72167 106.582 5.405C107.164 5.08833 107.779 4.93 108.425 4.93ZM11.571 23.548C11.5203 24.08 11.4823 24.5993 11.457 25.106C11.4443 25.6 11.438 25.98 11.438 26.246C11.438 26.5373 11.4443 26.816 11.457 27.082C11.4697 27.348 11.4823 27.576 11.495 27.766H11.058C10.9313 26.816 10.7603 26.0687 10.545 25.524C10.3423 24.9793 10.0447 24.5867 9.652 24.346C9.25933 24.1053 8.69567 23.985 7.961 23.985H7.144V34.815C7.144 35.3217 7.18833 35.7017 7.277 35.955C7.37833 36.2083 7.56833 36.3793 7.847 36.468C8.13833 36.544 8.55633 36.5947 9.101 36.62V37C8.74633 36.9747 8.29033 36.962 7.733 36.962C7.17567 36.9493 6.60567 36.943 6.023 36.943C5.415 36.943 4.83867 36.9493 4.294 36.962C3.762 36.962 3.33133 36.9747 3.002 37V36.62C3.54667 36.5947 3.95833 36.544 4.237 36.468C4.51567 36.3793 4.70567 36.2083 4.807 35.955C4.90833 35.7017 4.959 35.3217 4.959 34.815V23.985H4.123C3.41367 23.985 2.85633 24.1053 2.451 24.346C2.04567 24.5867 1.74167 24.9793 1.539 25.524C1.33633 26.0687 1.17167 26.816 1.045 27.766H0.608C0.633333 27.576 0.646 27.348 0.646 27.082C0.658667 26.816 0.665 26.5373 0.665 26.246C0.665 25.98 0.652333 25.6 0.627 25.106C0.614333 24.5993 0.582667 24.08 0.532 23.548C1.07667 23.5607 1.672 23.5733 2.318 23.586C2.964 23.5987 3.61633 23.605 4.275 23.605C4.93367 23.605 5.529 23.605 6.061 23.605C6.593 23.605 7.182 23.605 7.828 23.605C8.474 23.605 9.12633 23.5987 9.785 23.586C10.4437 23.5733 11.039 23.5607 11.571 23.548ZM15.4557 37.133C14.9237 37.133 14.4677 37.0317 14.0877 36.829C13.7077 36.6263 13.4227 36.3477 13.2327 35.993C13.0427 35.6383 12.9477 35.233 12.9477 34.777C12.9477 34.2197 13.0743 33.77 13.3277 33.428C13.581 33.0733 13.904 32.7883 14.2967 32.573C14.702 32.3577 15.1263 32.1803 15.5697 32.041C16.0257 31.889 16.45 31.7497 16.8427 31.623C17.248 31.4837 17.5773 31.3253 17.8307 31.148C18.0967 30.9707 18.2297 30.7363 18.2297 30.445V29.153C18.2297 28.697 18.1537 28.336 18.0017 28.07C17.8623 27.7913 17.666 27.595 17.4127 27.481C17.172 27.367 16.8807 27.31 16.5387 27.31C16.2473 27.31 15.937 27.3543 15.6077 27.443C15.2783 27.519 15.0187 27.6773 14.8287 27.918C15.1073 27.994 15.3353 28.146 15.5127 28.374C15.7027 28.5893 15.7977 28.8617 15.7977 29.191C15.7977 29.5457 15.6773 29.8243 15.4367 30.027C15.2087 30.2297 14.9173 30.331 14.5627 30.331C14.17 30.331 13.8787 30.2107 13.6887 29.97C13.4987 29.7167 13.4037 29.4253 13.4037 29.096C13.4037 28.754 13.486 28.4753 13.6507 28.26C13.828 28.0447 14.056 27.842 14.3347 27.652C14.6387 27.4493 15.025 27.2783 15.4937 27.139C15.975 26.9997 16.507 26.93 17.0897 26.93C17.6343 26.93 18.103 26.9933 18.4957 27.12C18.901 27.234 19.2367 27.424 19.5027 27.69C19.8193 27.9813 20.0283 28.3487 20.1297 28.792C20.231 29.2227 20.2817 29.7483 20.2817 30.369V35.613C20.2817 35.9297 20.3197 36.1577 20.3957 36.297C20.4843 36.4237 20.6237 36.487 20.8137 36.487C20.9403 36.487 21.0607 36.4553 21.1747 36.392C21.3013 36.3287 21.447 36.2337 21.6117 36.107L21.8017 36.43C21.5357 36.6453 21.2633 36.8163 20.9847 36.943C20.7187 37.0697 20.3767 37.133 19.9587 37.133C19.5533 37.133 19.224 37.0697 18.9707 36.943C18.7173 36.8163 18.5273 36.6327 18.4007 36.392C18.2867 36.1513 18.2297 35.8537 18.2297 35.499C17.9003 36.031 17.5077 36.4363 17.0517 36.715C16.5957 36.9937 16.0637 37.133 15.4557 37.133ZM16.3677 36.221C16.7223 36.221 17.0517 36.1197 17.3557 35.917C17.6723 35.7143 17.9637 35.4103 18.2297 35.005V31.224C18.0903 31.4267 17.8877 31.604 17.6217 31.756C17.3557 31.8953 17.0707 32.041 16.7667 32.193C16.4627 32.345 16.1713 32.5223 15.8927 32.725C15.6267 32.915 15.405 33.162 15.2277 33.466C15.0503 33.77 14.9617 34.1563 14.9617 34.625C14.9617 35.119 15.0883 35.5117 15.3417 35.803C15.595 36.0817 15.937 36.221 16.3677 36.221ZM26.1944 24.061V27.215H28.8164V27.595H26.1944V35.062C26.1944 35.5813 26.2894 35.9487 26.4794 36.164C26.6694 36.3793 26.9418 36.487 27.2964 36.487C27.6258 36.487 27.9171 36.354 28.1704 36.088C28.4364 35.822 28.6644 35.3723 28.8544 34.739L29.2154 34.872C29.0634 35.5433 28.7911 36.1133 28.3984 36.582C28.0184 37.038 27.4548 37.266 26.7074 37.266C26.2768 37.266 25.9158 37.209 25.6244 37.095C25.3331 36.9937 25.0798 36.8417 24.8644 36.639C24.5858 36.3477 24.3958 35.9993 24.2944 35.594C24.1931 35.1887 24.1424 34.6503 24.1424 33.979V27.595H22.3944V27.215H24.1424V24.441C24.5351 24.4283 24.9024 24.3967 25.2444 24.346C25.5864 24.2827 25.9031 24.1877 26.1944 24.061ZM32.7062 24.061V27.215H35.3282V27.595H32.7062V35.062C32.7062 35.5813 32.8012 35.9487 32.9912 36.164C33.1812 36.3793 33.4535 36.487 33.8082 36.487C34.1375 36.487 34.4288 36.354 34.6822 36.088C34.9482 35.822 35.1762 35.3723 35.3662 34.739L35.7272 34.872C35.5752 35.5433 35.3028 36.1133 34.9102 36.582C34.5302 37.038 33.9665 37.266 33.2192 37.266C32.7885 37.266 32.4275 37.209 32.1362 37.095C31.8448 36.9937 31.5915 36.8417 31.3762 36.639C31.0975 36.3477 30.9075 35.9993 30.8062 35.594C30.7048 35.1887 30.6542 34.6503 30.6542 33.979V27.595H28.9062V27.215H30.6542V24.441C31.0468 24.4283 31.4142 24.3967 31.7562 24.346C32.0982 24.2827 32.4148 24.1877 32.7062 24.061ZM41.3109 26.93C42.1595 26.93 42.9132 27.1073 43.5719 27.462C44.2305 27.8167 44.7562 28.374 45.1489 29.134C45.5415 29.894 45.7379 30.8883 45.7379 32.117C45.7379 33.3457 45.5415 34.34 45.1489 35.1C44.7562 35.8473 44.2305 36.3983 43.5719 36.753C42.9132 37.095 42.1595 37.266 41.3109 37.266C40.4749 37.266 39.7212 37.095 39.0499 36.753C38.3785 36.3983 37.8465 35.8473 37.4539 35.1C37.0739 34.34 36.8839 33.3457 36.8839 32.117C36.8839 30.8883 37.0739 29.894 37.4539 29.134C37.8465 28.374 38.3785 27.8167 39.0499 27.462C39.7212 27.1073 40.4749 26.93 41.3109 26.93ZM41.3109 27.31C40.6522 27.31 40.1139 27.69 39.6959 28.45C39.2779 29.1973 39.0689 30.4197 39.0689 32.117C39.0689 33.8143 39.2779 35.0367 39.6959 35.784C40.1139 36.5187 40.6522 36.886 41.3109 36.886C41.9569 36.886 42.4889 36.5187 42.9069 35.784C43.3375 35.0367 43.5529 33.8143 43.5529 32.117C43.5529 30.4197 43.3375 29.1973 42.9069 28.45C42.4889 27.69 41.9569 27.31 41.3109 27.31ZM52.3314 26.93C53.18 26.93 53.9337 27.1073 54.5924 27.462C55.251 27.8167 55.7767 28.374 56.1694 29.134C56.562 29.894 56.7584 30.8883 56.7584 32.117C56.7584 33.3457 56.562 34.34 56.1694 35.1C55.7767 35.8473 55.251 36.3983 54.5924 36.753C53.9337 37.095 53.18 37.266 52.3314 37.266C51.4954 37.266 50.7417 37.095 50.0704 36.753C49.399 36.3983 48.867 35.8473 48.4744 35.1C48.0944 34.34 47.9044 33.3457 47.9044 32.117C47.9044 30.8883 48.0944 29.894 48.4744 29.134C48.867 28.374 49.399 27.8167 50.0704 27.462C50.7417 27.1073 51.4954 26.93 52.3314 26.93ZM52.3314 27.31C51.6727 27.31 51.1344 27.69 50.7164 28.45C50.2984 29.1973 50.0894 30.4197 50.0894 32.117C50.0894 33.8143 50.2984 35.0367 50.7164 35.784C51.1344 36.5187 51.6727 36.886 52.3314 36.886C52.9774 36.886 53.5094 36.5187 53.9274 35.784C54.358 35.0367 54.5734 33.8143 54.5734 32.117C54.5734 30.4197 54.358 29.1973 53.9274 28.45C53.5094 27.69 52.9774 27.31 52.3314 27.31Z" fill="#FFC94B"/>
</svg>
